<?xml version="1.0" encoding="UTF-8"?><svg id="a" xmlns="http://www.w3.org/2000/svg" viewBox="0 0 184.46 25.18"><path d="M100.52,8.28v1.85h.34v-.72h.25c.17,0,.29.01.36.05.12.07.18.21.18.43v.21s.01.01.01.01t0,.02h.31v-.02s-.03-.05-.03-.1c0-.05,0-.09,0-.13v-.13c0-.1-.03-.19-.1-.29-.07-.1-.18-.16-.32-.18.11-.02.2-.05.27-.09.13-.08.18-.2.18-.36,0-.23-.09-.39-.28-.47-.11-.04-.28-.07-.51-.07h-.65M101.66,8.83c0,.15-.07.24-.19.3-.07.03-.18.04-.31.04h-.29v-.66h.27c.18,0,.31.02.4.07.08.04.13.14.13.26ZM102.9,9.21c0-.46-.17-.86-.49-1.19-.34-.33-.73-.49-1.2-.49s-.86.15-1.19.49c-.33.33-.49.73-.49,1.19s.17.87.49,1.2c.33.32.72.49,1.19.49s.86-.16,1.2-.49c.32-.33.49-.73.49-1.2ZM101.21,7.76c.4,0,.74.14,1.02.42.29.28.42.63.42,1.02s-.13.75-.42,1.03c-.28.28-.62.43-1.02.43s-.75-.15-1.03-.43c-.28-.29-.42-.62-.42-1.03s.14-.74.42-1.02c.27-.28.62-.42,1.03-.42Z" style="fill:#ea0029;"/><path d="M75.12,11.02c.06-.65.15-2.59-1.8-2.38-2.03.22-2.99,4.02-2.99,5.78,0,0,4.52-.58,4.79-3.4ZM77.01,17.77c-1.55,1.82-3.88,2.78-6.22,2.78-2.98,0-4.53-1.51-4.53-4.65,0-5.05,3.58-8.52,8.36-8.52,2.5,0,2.77,2.45,2.77,3.08,0,0,.32,4.64-6.99,5.19,0,0,.54,3.28,2.36,3.28,1.33,0,2.69-1.18,3.69-2.03l.55.88Z" style="fill:#ea0029;"/><path d="M0,13.15C0,8.29,3.13,1.36,12.6,1.36c1.52,0,3.21.26,4.72.8l-.11,1.53c-.05.88-.03,1.25-.49,1.25-.41,0-.51-.14-.57-.68-.11-.99-2.01-1.56-3.5-1.56-5.18,0-8.17,5.11-8.17,9.96,0,3.47,1.73,6.64,5.48,6.64,1.74,0,4.62-.97,5.18-2.96.08-.34.19-.56.57-.56.3,0,.43.2.43.51,0,.36-.16,1.11-.33,2.7-2.28,1.11-4.88,1.65-7.41,1.65-4.83,0-8.42-2.02-8.42-7.5Z" style="fill:#ea0029;"/><path d="M22.46,12.26,25.59,11.02c0-.88-.13-1.02-.54-1.02s-1.96.43-3.51,7.5l-.45,2.55h-3.37c.82-4.52,2.02-16.56,2.02-17.19,0-.31.23-.95-.16-.95-.25,0-.63.2-1.58.51l-.35-1.17C19.56.55,21.65.09,23.53.03c.24,0,.33,0,.33.42l-.47,4.94c-.06.42-.22,1.82-.7,5.05l.05.06c.75-1.66,2.13-2.94,4.04-3.09h.74c1.31-.01,1.86,1.04,1.86,2.31,0,0,0-1.28,0,.26,0,1.7-.82,6.95-.82,7.69,0,.31-.04.58.31.58.19,0,.49-.16,1.52-.58l.37,1.05c-.93.62-4.02,1.59-5.29,1.59-.57,0-.71-.63-.71-1.11,0-1.48.81-7.33.81-8.2" style="fill:#ea0029;"/><path d="M52.89,18.14c-1.52,1.59-3.97,2.41-6.14,2.41-2.99,0-4.53-1.51-4.53-4.65,0-5.05,3.58-8.52,8.36-8.52.81,0,2.77.25,2.77,1.51,0,.82-.76,1.25-1.46,1.25.09,0-1.94-.05-2.24-1.51-2.28.76-3.35,4.52-3.35,6.73,0,1.47.53,3.66,2.29,3.62,1.23-.03,2.77-.91,3.72-1.76l.59.93Z" style="fill:#ea0029;"/><path d="M63.2,7.38c1.31,0,1.98,1,1.98,2.27,0,2.19-1.38,4.09-3.5,4.35,1.19,3.01,1.85,4.09,2.42,4.09.41,0,.9-.43,1.25-.63l.51.91c-1.44,1.22-4.05,2.18-4.45,2.18-.65,0-2.5-3.75-3.02-5.82,1.74-.34,3.18-1.84,3.18-3.78,0-.88-.43-.99-.84-.99s-2.74,1.19-3.61,7.47l-.35,2.58h-3.37c.81-4.51,2.01-16.56,2.01-17.18,0-.31.23-.95-.17-.95-.24,0-.63.2-1.58.51l-.35-1.17c1.93-.71,4.02-1.16,5.89-1.22.25,0,.32,0,.32.42l-.48,4.87c-.05.4-.22,1.82-.71,5.05l.05.05c.58-1.17,2.17-2.98,4.29-3.02h.51Z" style="fill:#ea0029;"/><path d="M39.79,11.02c.06-.65.15-2.59-1.8-2.38-2.03.22-2.99,4.02-2.99,5.78,0,0,4.52-.58,4.79-3.4ZM41.68,17.77c-1.55,1.82-3.88,2.78-6.22,2.78-2.98,0-4.53-1.51-4.53-4.65,0-5.05,3.58-8.52,8.36-8.52,2.5,0,2.77,2.45,2.77,3.08,0,0,.32,4.64-6.99,5.19,0,0,.54,3.28,2.36,3.28,1.33,0,2.69-1.18,3.69-2.03l.55.88Z" style="fill:#ea0029;"/><path d="M78.14,8.6c2.01-.77,4.4-1.22,5.78-1.22.29,0,.35.06.35.43,0,.42-.22,1.82-.71,5.05l.05.06c.65-1.99,2.45-5.54,4.7-5.54.71,0,1.3.49,1.3,1.25,0,.85-.76,1.39-1.52,1.39-.49,0-.83-.02-1.4-.32-1.52,1.36-2.92,5.44-3.53,10.3h-3.92c.3-2.37,1-9.34,1.08-9.96.04-.28.18-.87-.25-.83-.24.02-.64.22-1.59.57l-.35-1.17Z" style="fill:#ea0029;"/><path d="M97.2,9.94c-.81,0-1.86-.37-1.86-1.36-.19-.03-.47-.04-.64-.04-.76,0-1.39.39-1.39,1.24,0,2.47,4.99,2.97,4.99,6.63,0,1.71-1.6,4.15-5.67,4.15-1.14,0-4.24-.4-4.24-2.1,0-.71.63-1.05,1.25-1.05,1.03,0,2.05.73,2.07,1.86.24.14.44.1.7.1,1.14,0,1.96-.55,1.94-1.74-.05-2.87-4.67-3.18-4.67-6.44,0-2.18,2.12-3.81,5.18-3.81.95,0,3.67.2,3.67,1.51,0,.71-.78,1.06-1.35,1.06Z" style="fill:#ea0029;"/><path d="M182.09,8.21v1.85h.34v-.72h.25c.17,0,.29.01.36.05.12.07.18.21.18.43v.21s.01.01.01.01t0,.02h.31v-.02s-.03-.05-.03-.1c0-.05,0-.09,0-.13v-.13c0-.1-.03-.19-.1-.29-.07-.1-.18-.16-.32-.18.11-.02.2-.05.27-.09.13-.08.18-.2.18-.36,0-.23-.09-.39-.28-.47-.11-.04-.28-.07-.51-.07h-.65M183.23,8.77c0,.15-.07.24-.19.3-.07.03-.18.04-.31.04h-.29v-.66h.27c.18,0,.31.02.4.07.08.04.13.14.13.26ZM184.46,9.14c0-.46-.17-.86-.49-1.19-.34-.33-.73-.49-1.2-.49s-.86.15-1.19.49c-.33.33-.49.73-.49,1.19s.17.87.49,1.2c.33.32.72.49,1.19.49s.86-.16,1.2-.49c.32-.33.49-.73.49-1.2ZM182.77,7.7c.4,0,.74.14,1.02.42.29.28.42.63.42,1.02s-.13.75-.42,1.03c-.28.28-.62.43-1.02.43s-.75-.15-1.03-.43c-.28-.29-.42-.62-.42-1.03s.14-.74.42-1.02c.27-.28.62-.42,1.03-.42Z" style="fill:#ea0029;"/><polygon points="172.02 2.18 171.34 4.12 172.7 4.12 171.83 6.1 174.62 6.1 176.22 2.18 172.02 2.18" style="fill:#ea0029;"/><path d="M152.41,25.17l.88-2.8h4.46s.32-12.5.32-12.5h-1.31l.74-2.4h4.47l-.09,2.67-.27,6.63,4.09-6.9h-1.51l.8-2.41h6.53l-11.23,17.72-7.88-.02Z" style="fill:#ea0029;"/><path d="M129.84,3.65c-.8-.99-2.01-1.48-3.62-1.48h-8.39l-.91,2.92h1.76l-4.09,12.77h-1.28l-.95,2.92h4.93l.96-2.92,1.71-5.35h2.47l.73,5.36h-1.61l-.94,2.91h7.46l-1.78-8.55c1.32-.18,2.39-.76,3.18-1.74s1.26-2.07,1.38-3.28c.14-1.39-.19-2.58-1-3.56ZM126.26,7.19c-.19,1.95-1.41,2.92-3.64,2.92h-1.9l1.61-5.03h2.03c.64,0,1.14.19,1.48.56.34.37.48.89.42,1.55Z" style="fill:#ea0029;"/><path d="M139.4,20.78l.88-2.82h1.34l4.14-12.97h-1.73l.87-2.82h5.48l-5.01,15.79h1.66l-.87,2.82h-6.76Z" style="fill:#ea0029;"/><path d="M147.21,20.78l.88-2.82h1.34l4.14-12.97h-1.73l.87-2.82h5.48l-5.01,15.79h1.66l-.87,2.82h-6.76Z" style="fill:#ea0029;"/><path d="M180.37,8.1c-1.13-.56-2.96-.97-4.15-.97-1.63,0-2.82.41-3.65,1.14s-1.25,1.69-1.25,2.56c0,.81.16,1.35.66,1.97.35.43,1.27,1.12,1.94,1.57s1.14.83,1.53,1.2c.35.33.51.69.51,1.05,0,.78-.78,1.14-1.49,1.14-1.08,0-2.18-.67-2.42-2.11h-2.91s-1.65,5.05-1.65,5.05h2.96l.3-.98c.85.63,1.97,1.11,3.65,1.1,1.62-.01,2.72-.45,3.44-.96.85-.6,1.75-1.77,1.75-3.34,0-.83-.15-1.6-.56-2.32-.36-.62-.88-1.26-1.72-1.85-.6-.42-1.15-.75-1.79-1.13-.35-.21-.62-.5-.62-.78,0-.18.09-.35.22-.47.17-.15.5-.3.97-.3.95,0,2.24.25,3.45.88l.83-2.44Z" style="fill:#ea0029;"/><path d="M137.39,12.04c-.22-.02-.54-.04-.73-.04-4.38,0-7.72,1.22-7.72,4.95,0,2.04,1.29,3.77,4.91,3.77.51,0,3.95.02,4.47.02,0,0,2.59-8.07,3.17-9.94.58-1.87-.12-3.75-3.1-3.75-2.6,0-4.13.36-5.74.87l-.97,3c1.43-.46,3.36-.81,4.99-.81.71,0,.92.09,1.04.21s.11.33.06.52l-.38,1.21ZM135.49,17.9s-.37-.01-1.02-.01c-1.45,0-2.06-.58-2.06-1.33,0-1.27,1.3-1.85,3.09-1.85.32,0,1,.04,1,.04l-1.01,3.15Z" style="fill:#ea0029;"/></svg>